<svg xmlns="http://www.w3.org/2000/svg" viewBox="0 0 231.74 129.89"><defs><style>.cls-1{fill:#fff;}.cls-2{font-size:49.87px;font-family:RobotoCondensed-Regular, Roboto Condensed;}</style></defs><title>DocExpress</title><g id="Layer_3" data-name="Layer 3"><path d="M554,312.3c0-17.84-12.76-32.3-28.5-32.3S497,294.46,497,312.3h0a54.49,54.49,0,0,0,23.76,10.16l2.08.35a17.68,17.68,0,0,0,6.07,0h0A63.55,63.55,0,0,0,554,312.3Z" transform="translate(-411.26 -249.6)"/></g><g id="Body"><circle class="cls-1" cx="113.86" cy="63.08" r="4.56"/><rect class="cls-1" x="111.58" y="48.64" width="4.56" height="14.44"/><circle class="cls-1" cx="114.24" cy="33.06" r="17.48"/></g><g id="Head"><circle cx="113.86" cy="21.28" r="15.96"/><path class="cls-1" d="M525.12,265.94a8,8,0,1,1,8-8A8,8,0,0,1,525.12,265.94Z" transform="translate(-411.26 -249.6)"/><path d="M525.12,250.36a7.6,7.6,0,1,1-7.6,7.6,7.61,7.61,0,0,1,7.6-7.6m0-.76a8.36,8.36,0,1,0,8.36,8.36,8.36,8.36,0,0,0-8.36-8.36Z" transform="translate(-411.26 -249.6)"/><circle cx="113.86" cy="7.9" r="1.54"/><path d="M512.2,283.71c0,6.76,5.78,12.25,12.92,12.25S538,290.47,538,283.71L527,283.09a31.92,31.92,0,0,0-3.66,0l-11.09.62" transform="translate(-411.26 -249.6)"/></g><g id="Text"><text class="cls-2" transform="translate(0 116.38)">DocExpress</text></g></svg>